<svg width="392" height="304" viewBox="0 0 392 304" fill="none" xmlns="http://www.w3.org/2000/svg">
<path d="M180 214C180 263.706 139.706 304 90 304C40.2944 304 0 263.706 0 214C0 164.294 40.2944 124 90 124C139.706 124 180 164.294 180 214Z" fill="black"/>
<path d="M118.284 115.071C122.19 111.166 128.521 111.166 132.426 115.071L188.995 171.64C192.9 175.545 192.9 181.877 188.995 185.782L167.782 206.995C163.876 210.9 157.545 210.9 153.64 206.995L97.0711 150.426C93.1658 146.521 93.1658 140.19 97.0711 136.284L118.284 115.071Z" fill="black"/>
<path d="M222.5 27C290.5 -14 315 -0.499996 319 27C323 54.5 304.5 106 348.5 99.5C392.5 93 415.5 158.5 348.5 169C281.5 179.5 255 76 207 109.5C159 143 140.5 155 146.5 155" stroke="black"/>
</svg>
